# xmcd CD database file
#
# Track frame offsets:
#	150
#	14705
#	35410
#	45839
#	64407
#	79413
#	104178
#	118020
#	134337
#	156167
#	176234
#
# Disc length: 2622 seconds
#
# Revision: 0
# Processed by: cddbd v1.5.1PL2 Copyright (c) Steve Scherf et al.
# Submitted via: CDex 1.51
#
DISCID=9f0a3c0b
DTITLE=Poppa Dawg - Same Dog, New Suit
DYEAR=2005
DGENRE=Blues
TTITLE0=1-2-Gone
TTITLE1=Cool Little Number
TTITLE2=Nobody Here (Feels Sorry For You)
TTITLE3=Croc Talkin'
TTITLE4=It's Another Day
TTITLE5=This Man
TTITLE6=It Is What It Is
TTITLE7=10 (Dollar) Mistake
TTITLE8=Saturday
TTITLE9=Donnie's Boogie
TTITLE10=I Ain't Leaving (Cause I'm Already Gone)
EXTD=YEAR: 2005
EXTT0=
EXTT1=
EXTT2=
EXTT3=
EXTT4=
EXTT5=
EXTT6=
EXTT7=
EXTT8=
EXTT9=
EXTT10=
PLAYORDER=
